<?xml version="1.0" encoding="UTF-8"?>
<svg id="Capa_1" data-name="Capa 1" xmlns="http://www.w3.org/2000/svg" viewBox="0 0 1652 467.34">
  <defs>
    <style>
      .cls-1 {
        fill: #ea5a8c;
      }

      .cls-1, .cls-2, .cls-3, .cls-4, .cls-5, .cls-6 {
        stroke-width: 0px;
      }

      .cls-7 {
        font-family: CenturyGothic-Bold, 'Century Gothic';
        font-size: 298.79px;
        font-weight: 700;
      }

      .cls-7, .cls-4 {
        fill: #34bbe4;
      }

      .cls-2 {
        fill: none;
      }

      .cls-3 {
        fill: #fff;
      }

      .cls-5 {
        fill: #f4aebc;
      }

      .cls-6 {
        fill: #f18a4c;
      }
    </style>

  </defs>
  <path class="cls-2" d="m803.66,448.21v19.13c.23-3.16.36-6.34.36-9.56,0-.58,0-1.16-.02-1.74v-.2c-.04-2.56-.15-5.1-.34-7.62Z"/>
  <text class="cls-7" transform="translate(0 367.42)"><tspan x="0" y="0">COFTALM</tspan></text>
  <g>
    <path class="cls-4" d="m1608.53,218.3v49.04c-.37,7.96-1.58,15.69-3.55,23.12-12.54,47.4-55.72,82.33-107.07,82.33-61.17,0-110.75-49.58-110.75-110.73,0-48.05,30.61-88.95,73.39-104.27,10.16-3.64,21.01-5.84,32.3-6.34h48.92c-12.03,0-21.77,9.74-21.77,21.77v.32c0,11.44,8.84,20.82,20.06,21.7h-38.22c-1.3-.08-2.61-.12-3.92-.12s-2.63.04-3.93.12c-35.15,2.03-63.04,31.18-63.04,66.83s29.98,66.95,66.96,66.95,64.73-27.79,66.83-62.87c.08-1.35.12-2.72.12-4.09s-.04-2.73-.12-4.08v-42.04c0,12.04,9.76,21.79,21.8,21.79h.32c11.24,0,20.49-8.5,21.67-19.43Z"/>
    <path class="cls-1" d="m1564.74,151.45v43.77s43.79,0,43.79,0v-2.69c-1.67-22.98-20.23-41.09-42.87-41.09-.31,0-.61,0-.91,0Z"/>
    <rect class="cls-2" x="1564.74" y="195.22" width="43.79" height=".07"/>
    <path class="cls-4" d="m1532.59,261.95c0,19.03-15.43,34.46-34.46,34.46s-34.47-15.43-34.47-34.46c0-4.54.88-8.88,2.48-12.85,2.96,3.03,7.09,4.92,11.67,4.92,9,0,16.3-7.3,16.3-16.3,0-3.54-1.13-6.82-3.05-9.49,2.28-.48,4.65-.73,7.07-.73,19.03,0,34.46,15.43,34.46,34.46Z"/>
    <path class="cls-6" d="m1608.53,195.29v23c-1.18,10.93-10.43,19.43-21.67,19.43h-.32c-12.04,0-21.8-9.76-21.8-21.79v-20.64h43.79Z"/>
    <path class="cls-5" d="m1564.74,132.97v18.47s43.92,0,43.92,0v-18.47c0-12.04-9.76-21.79-21.8-21.79h-.32c-12.04,0-21.8,9.76-21.8,21.79Z"/>
    <path class="cls-3" d="m1564.74,257.97v-62.75h-62.91c-1.3-.08-2.61-.12-3.92-.12s-2.63.04-3.93.12c-35.15,2.03-63.04,31.18-63.04,66.83s29.98,66.95,66.96,66.95,64.73-27.79,66.83-62.87c.08-1.35.12-2.72.12-4.09s-.04-2.73-.12-4.08Zm-66.62,38.44c-19.04,0-34.47-15.43-34.47-34.46,0-4.54.88-8.88,2.48-12.85,2.96,3.03,7.09,4.92,11.67,4.92,9,0,16.3-7.3,16.3-16.3,0-3.54-1.13-6.82-3.05-9.49,2.28-.48,4.65-.73,7.07-.73,19.03,0,34.46,15.43,34.46,34.46s-15.43,34.46-34.46,34.46Z"/>
    <path class="cls-6" d="m1564.74,151.44v43.78h-24.69c-11.23-.87-20.06-10.25-20.06-21.7v-.32c0-12.02,9.74-21.77,21.77-21.77h22.98Z"/>
    <path class="cls-5" d="m1608.66,151.44v43.85s21.57,0,21.57,0c12.02,0,21.77-9.74,21.77-21.76v-.32c0-12.02-9.75-21.77-21.77-21.77h-21.57Z"/>
    <path class="cls-5" d="m1565.66,151.44c22.65,0,41.21,18.11,42.87,41.09v.09c.06.86.1,1.73.12,2.6v.07h.01v-43.85s-43,0-43,0Z"/>
  </g>
  <path class="cls-2" d="m755.8,0v19.13c.23-3.16.36-6.34.36-9.56,0-.58,0-1.16-.02-1.74v-.2c-.04-2.56-.15-5.1-.34-7.62Z"/>
</svg>
