<?xml version="1.0" encoding="UTF-8"?>
<svg version="1.1" xmlns="http://www.w3.org/2000/svg" width="500" height="278">
<path d="M0 0 C165 0 330 0 500 0 C500 91.74 500 183.48 500 278 C335 278 170 278 0 278 C0 186.26 0 94.52 0 0 Z " fill="#FDFDFD" transform="translate(0,0)"/>
<path d="M0 0 C11.10282578 8.83310749 21.2607428 21.63821683 23.57421875 36.16015625 C24.9435313 56.33469442 21.98967252 73.29587994 8.359375 89.14453125 C-1.51099719 99.00012744 -14.19381357 106.04719068 -28.25 106.75 C-28.25 104.11 -28.25 101.47 -28.25 98.75 C-27.26 98.45867187 -26.27 98.16734375 -25.25 97.8671875 C-16.50736323 95.19050881 -9.81740406 92.31740406 -3.25 85.75 C-35.92 85.255 -35.92 85.255 -69.25 84.75 C-65.45227905 89.49715119 -63.72687838 90.8982414 -58.5 93.4375 C-57.88108887 93.73857666 -57.26217773 94.03965332 -56.62451172 94.34985352 C-52.21149113 96.44093036 -48.04290153 97.88727772 -43.25 98.75 C-43.25 101.39 -43.25 104.03 -43.25 106.75 C-57.88586741 106.39381739 -69.48898931 99.19939634 -80 89.4375 C-87.79364226 81.15908573 -91.93565921 71.50106412 -95.25 60.75 C-95.45238281 60.11707031 -95.65476562 59.48414063 -95.86328125 58.83203125 C-98.70852599 43.51369342 -94.94031136 27.54460476 -86.25 14.75 C-83.44168162 11.20703803 -80.44282292 7.94829946 -77.25 4.75 C-76.61191406 4.1003125 -75.97382812 3.450625 -75.31640625 2.78125 C-54.99079128 -16.48794007 -21.96473825 -15.85112722 0 0 Z " fill="#060606" transform="translate(106.25,87.25)"/>
<path d="M0 0 C1.34384766 0.07250977 1.34384766 0.07250977 2.71484375 0.14648438 C3.65199219 0.20255859 4.58914063 0.25863281 5.5546875 0.31640625 C6.97201172 0.3947168 6.97201172 0.3947168 8.41796875 0.47460938 C10.7555294 0.60447386 13.09268295 0.73944495 15.4296875 0.87890625 C14.6171875 2.81640625 14.6171875 2.81640625 13.4296875 4.87890625 C12.4396875 5.20890625 11.4496875 5.53890625 10.4296875 5.87890625 C10.5534375 7.45671875 10.5534375 7.45671875 10.6796875 9.06640625 C10.39238401 13.4477845 9.48123169 14.82736206 6.4296875 17.87890625 C4.13338756 19.02705622 2.35270664 19.18660434 -0.1953125 19.44140625 C-1.42121094 19.56708984 -1.42121094 19.56708984 -2.671875 19.6953125 C-3.29835938 19.75589844 -3.92484375 19.81648438 -4.5703125 19.87890625 C-4.5703125 20.53890625 -4.5703125 21.19890625 -4.5703125 21.87890625 C-3.68988281 21.91628906 -2.80945313 21.95367187 -1.90234375 21.9921875 C-0.74089844 22.05792969 0.42054688 22.12367187 1.6171875 22.19140625 C2.76574219 22.24941406 3.91429687 22.30742188 5.09765625 22.3671875 C8.63442414 22.91034881 10.62049281 23.68598828 13.4296875 25.87890625 C14.55938414 29.69163241 14.85121901 31.87191431 13.3046875 35.56640625 C10.44875289 39.0887256 7.75203319 41.43812435 3.4296875 42.87890625 C-6.99605507 43.91851021 -6.99605507 43.91851021 -11.8828125 40.69140625 C-13.5703125 37.87890625 -13.5703125 37.87890625 -13.6953125 35.37890625 C-12.24221167 32.1497933 -10.18630372 30.22659068 -7.5703125 27.87890625 C-8.2096875 27.63140625 -8.8490625 27.38390625 -9.5078125 27.12890625 C-11.5703125 25.87890625 -11.5703125 25.87890625 -12.3203125 23.75390625 C-12.4028125 23.13515625 -12.4853125 22.51640625 -12.5703125 21.87890625 C-10.9203125 20.88890625 -9.2703125 19.89890625 -7.5703125 18.87890625 C-8.2303125 18.23953125 -8.8903125 17.60015625 -9.5703125 16.94140625 C-11.92250446 13.33961231 -12.21060218 11.18647011 -12.03515625 6.96875 C-11.5703125 4.87890625 -11.5703125 4.87890625 -9.1953125 2.37890625 C-5.63922449 0.34685596 -4.06292088 -0.2314322 0 0 Z " fill="#111111" transform="translate(359.5703125,102.12109375)"/>
<path d="M0 0 C3.96 0 7.92 0 12 0 C15.96 8.91 19.92 17.82 24 27 C25.82274161 24.26588759 27.19449654 21.63716426 28.6015625 18.67578125 C29.09140625 17.64775391 29.58125 16.61972656 30.0859375 15.56054688 C30.84777344 13.95276367 30.84777344 13.95276367 31.625 12.3125 C32.3984375 10.68731445 32.3984375 10.68731445 33.1875 9.02929688 C34.46040108 6.35384738 35.73047063 3.67705106 37 1 C40.96 1 44.92 1 49 1 C47.68 1.99 46.36 2.98 45 4 C44.42939144 7.24111373 44.42939144 7.24111373 44.57421875 10.96875 C44.57750687 11.64546753 44.58079498 12.32218506 44.58418274 13.01940918 C44.59459447 14.44842156 44.61452953 15.87739189 44.64331055 17.30615234 C44.68734085 19.49209862 44.70474079 21.67694662 44.71679688 23.86328125 C44.61281873 31.03689587 44.61281873 31.03689587 46 38 C48.01508358 38.73323796 48.01508358 38.73323796 50 39 C50 39.66 50 40.32 50 41 C44.06 41 38.12 41 32 41 C32 40.34 32 39.68 32 39 C33.98 38.505 33.98 38.505 36 38 C36 29.09 36 20.18 36 11 C31.71 20.57 27.42 30.14 23 40 C20 39 20 39 18.6496582 36.45556641 C18.20452881 35.34874512 17.75939941 34.24192383 17.30078125 33.1015625 C16.57084961 31.29945313 16.57084961 31.29945313 15.82617188 29.4609375 C15.57794678 28.83155273 15.32972168 28.20216797 15.07397461 27.55371094 C14.316335 25.63471354 13.54156166 23.7233657 12.76367188 21.8125 C9 12.42593249 9 12.42593249 9 9 C8.34 9 7.68 9 7 9 C7.33 18.24 7.66 27.48 8 37 C9.32 37.66 10.64 38.32 12 39 C12 39.66 12 40.32 12 41 C7.38 41 2.76 41 -2 41 C-2 40.34 -2 39.68 -2 39 C-0.02 38.505 -0.02 38.505 2 38 C3.37383463 26.60453238 4.30900266 15.48459891 4 4 C2.68 3.67 1.36 3.34 0 3 C0 2.01 0 1.02 0 0 Z " fill="#090909" transform="translate(226,145)"/>
<path d="M0 0 C0.33 12.87 0.66 25.74 1 39 C2.32 39.33 3.64 39.66 5 40 C5 40.99 5 41.98 5 43 C-0.445 43.495 -0.445 43.495 -6 44 C-6 43.01 -6 42.02 -6 41 C-7.546875 42.0209375 -7.546875 42.0209375 -9.125 43.0625 C-11.84327065 44.60248801 -12.89784339 45 -16.125 45 C-20.07415686 43.62638022 -22.91196229 41.78422966 -25.1171875 38.16796875 C-26.73174682 34.20301112 -26.53142051 30.19822206 -26 26 C-23.67076821 21.16236475 -20.81852225 18.36380337 -16 16 C-12.91387673 15.68684183 -10.11598703 15.8111523 -7 16 C-7.33 12.37 -7.66 8.74 -8 5 C-8.99 4.67 -9.98 4.34 -11 4 C-11 3.34 -11 2.68 -11 2 C-9.35440244 1.66550467 -7.70851502 1.33243501 -6.0625 1 C-4.68771484 0.7215625 -4.68771484 0.7215625 -3.28515625 0.4375 C-1 0 -1 0 0 0 Z " fill="#0D0D0D" transform="translate(176,142)"/>
<path d="M0 0 C4.19146137 2.57936085 7.42603945 5.27811834 9 10 C9.59687536 15.86927439 8.96274659 19.43063651 5.54296875 24.296875 C2.49114348 27.66547201 -0.74603827 28.87805792 -5.23828125 29.12109375 C-11.02989937 28.81934558 -14.06408008 27.22391406 -18 23 C-20.28953131 19.04535502 -20.4668364 15.5127519 -20 11 C-16.72168859 2.11503102 -9.3264674 -2.17760836 0 0 Z " fill="#101010" transform="translate(298,158)"/>
<path d="M0 0 C0.66 0 1.32 0 2 0 C3.98070161 2.27413888 4.95282994 4.08355316 5.109375 7.125 C4.6685056 13.05669733 3.06801886 17.2724855 -1.50683594 21.33959961 C-2.09754883 21.83468018 -2.68826172 22.32976074 -3.296875 22.83984375 C-9.07033914 27.841896 -14.45669114 33.23398376 -19.86450195 38.62426758 C-21.68712461 40.43712662 -23.52015985 42.2390202 -25.35351562 44.04101562 C-26.53190779 45.21288058 -27.70966412 46.38538534 -28.88671875 47.55859375 C-29.42640793 48.08593613 -29.96609711 48.6132785 -30.5221405 49.15660095 C-35.92884775 54.59485425 -39.95009987 60.54581769 -42 68 C-44.26861212 66.2214081 -44.94714054 65.2729023 -45.50390625 62.3984375 C-45.52324219 61.40070313 -45.54257812 60.40296875 -45.5625 59.375 C-45.60503906 58.39273438 -45.64757813 57.41046875 -45.69140625 56.3984375 C-43.92032712 47.69313328 -36.77668407 41.35154716 -30.625 35.375 C-29.54992187 34.30765625 -29.54992187 34.30765625 -28.453125 33.21875 C-24.36197594 29.18667891 -20.1665061 25.31865895 -15.80688477 21.57861328 C-8.81230829 15.46769158 -2.46388022 9.18355355 0 0 Z " fill="#F5F5F5" transform="translate(86,83)"/>
<path d="M0 0 C3.42332255 1.68265007 4.98930724 3.37889625 6.90625 6.65625 C8.39299836 11.81614136 8.66957517 15.46258771 6.78125 20.53125 C4.17870401 24.56968343 1.52755664 26.82414779 -3.03125 28.34375 C-7.76164335 28.73148716 -10.08671399 28.82492872 -14.34375 26.65625 C-17.94268525 23.55949176 -19.75073133 21.60867855 -20.34765625 16.7890625 C-20.54202715 12.16178113 -20.37680549 9.06045768 -18.34375 4.84375 C-13.0975566 -0.82781043 -7.44574637 -2.40554883 0 0 Z " fill="#101010" transform="translate(440.03125,102.65625)"/>
<path d="M0 0 C3.9655082 2.08799582 6.47391909 4.07786562 8.02734375 8.28125 C8.70768692 13.35831091 8.62378996 17.10965922 6.27734375 21.71875 C2.48520302 26.03757694 -0.39984003 28.03386382 -6.22265625 28.59375 C-11.69711052 28.13754548 -15.08238905 26.29346992 -18.91015625 22.21875 C-20.61004941 17.51904538 -20.95278058 13.19557969 -19.97265625 8.28125 C-15.49690851 0.77392912 -8.72478861 -3.17893288 0 0 Z " fill="#121212" transform="translate(286.97265625,102.71875)"/>
<path d="M0 0 C4.43894947 2.25709295 6.50084299 4.63125503 8.03125 9.3125 C8.79685013 14.70405023 8.07901263 18.68830842 5.03125 23.3125 C1.37959606 26.6902799 -1.22728268 28.14505122 -6.21875 28.625 C-11.44391329 28.18956973 -14.97056708 26.44171131 -18.63671875 22.53515625 C-21.24919535 18.1759211 -20.76648494 13.19463786 -19.96875 8.3125 C-15.9154324 0.6912135 -8.3796076 -2.92621218 0 0 Z " fill="#0E0E0E" transform="translate(334.96875,102.6875)"/>
<path d="M0 0 C4.875 3.75 4.875 3.75 6 6 C6.59172157 11.20714985 5.13975533 14.02694019 2 18 C-0.25321785 20.46894479 -2.63177373 22.7950414 -5.03125 25.12109375 C-6.4128776 26.48230295 -7.79438432 27.84363484 -9.17578125 29.20507812 C-11.33911438 31.32494815 -13.50488015 33.44225899 -15.67333984 35.55688477 C-17.77835936 37.61340043 -19.87390151 39.67922569 -21.96875 41.74609375 C-22.6136438 42.36922958 -23.2585376 42.99236542 -23.92297363 43.63438416 C-28.81077842 48.46842115 -32.69258958 52.87978427 -33.390625 59.96484375 C-33.34421875 61.27582031 -33.2978125 62.58679688 -33.25 63.9375 C-33.23195313 64.62134766 -33.21390625 65.30519531 -33.1953125 66.00976562 C-33.14876609 67.67379978 -33.07704561 69.33709886 -33 71 C-38.28296631 65.99508455 -40.29024348 63.12775855 -40.5 55.8125 C-40.2672598 44.82471264 -33.24323426 38.79014287 -25.734375 31.5625 C-22.87333827 28.88129986 -19.94864654 26.29842439 -16.9765625 23.7421875 C-8.95378094 16.67072391 -3.05729759 10.44576676 0 0 Z " fill="#F5F5F5" transform="translate(70,79)"/>
<path d="M0 0 C0.66 0 1.32 0 2 0 C3.13557238 2.27114476 3.23084318 3.72293619 3.3125 6.25 C3.36857422 7.37148437 3.36857422 7.37148437 3.42578125 8.515625 C2.34729719 14.80843106 -3.11708982 19.34118624 -7.5234375 23.578125 C-8.80496657 24.83435079 -10.08620749 26.09087059 -11.3671875 27.34765625 C-13.36652175 29.29756985 -15.36890988 31.24411338 -17.37695312 33.18505859 C-28.09746958 43.48674377 -28.09746958 43.48674377 -36 56 C-36.33 56.66 -36.66 57.32 -37 58 C-37.07092842 60.2072923 -37.08415025 62.41667452 -37.0625 64.625 C-37.05347656 65.81351562 -37.04445313 67.00203125 -37.03515625 68.2265625 C-37.02355469 69.14179688 -37.01195312 70.05703125 -37 71 C-40.51821882 69.82726039 -41.49171314 68.44375882 -43.1953125 65.21484375 C-45.4555641 58.9936658 -44.72155578 52.80706904 -42 46.875 C-38.22337966 40.16219033 -33.14511712 34.82643342 -27.34765625 29.82421875 C-22.45240104 25.5781775 -17.84525167 21.06639609 -13.25 16.5 C-12.41339844 15.68402344 -11.57679687 14.86804688 -10.71484375 14.02734375 C-6.28194923 9.62272926 -2.75256044 5.62611255 0 0 Z " fill="#F4F4F4" transform="translate(93,98)"/>
<path d="M0 0 C0.66 0.33 1.32 0.66 2 1 C2.10933663 2.70686635 2.18619084 4.41582604 2.25 6.125 C2.29640625 7.07632813 2.3428125 8.02765625 2.390625 9.0078125 C1.34100112 17.04793141 -6.41069156 22.67309911 -11.875 28.0625 C-12.76058594 28.94744141 -13.64617187 29.83238281 -14.55859375 30.74414062 C-21.73870922 37.87610331 -21.73870922 37.87610331 -25.3984375 40.8046875 C-28.04343855 43.03665535 -29.82177975 45.20112729 -31.75 48.0625 C-32.32234375 48.89910156 -32.8946875 49.73570312 -33.484375 50.59765625 C-35.75268052 54.19303743 -37.19931195 56.99311949 -37.625 61.25 C-37.74875 62.4875 -37.8725 63.725 -38 65 C-41.25181822 61.9579765 -42.80279806 60.05930549 -43.23828125 55.51171875 C-43.26277344 54.57972656 -43.28726563 53.64773437 -43.3125 52.6875 C-43.34988281 51.76324219 -43.38726562 50.83898437 -43.42578125 49.88671875 C-42.37344157 42.75204882 -36.00944492 37.77305027 -31.09375 32.96875 C-29.95117737 31.83753723 -29.95117737 31.83753723 -28.78552246 30.68347168 C-25.54306306 27.47356476 -22.28882444 24.2756956 -19.03564453 21.07666016 C-16.65506531 18.73231647 -14.28055318 16.38194701 -11.90625 14.03125 C-10.80766663 12.95756165 -10.80766663 12.95756165 -9.68688965 11.86218262 C-5.91942968 8.13092488 -2.74045874 4.5461047 0 0 Z " fill="#F4F4F4" transform="translate(107,104)"/>
<path d="M0 0 C11.55 0 23.1 0 35 0 C35 3.3 35 6.6 35 10 C33 9 33 9 31.875 6.5 C31.25625 5.675 30.6375 4.85 30 4 C27.36 3.67 24.72 3.34 22 3 C22.33 14.55 22.66 26.1 23 38 C24.65 38.33 26.3 38.66 28 39 C28 39.66 28 40.32 28 41 C21.4 41 14.8 41 8 41 C8 40.34 8 39.68 8 39 C9.65 38.34 11.3 37.68 13 37 C13.33 25.78 13.66 14.56 14 3 C9.545 3.495 9.545 3.495 5 4 C4.01 6.31 3.02 8.62 2 11 C1.34 11 0.68 11 0 11 C0 7.37 0 3.74 0 0 Z " fill="#191919" transform="translate(148,89)"/>
<path d="M0 0 C0 1.32 0 2.64 0 4 C0.845625 3.34 1.69125 2.68 2.5625 2 C6.48779735 -0.28380937 8.53504887 -0.58971053 13 0 C15.61593153 1.83115207 15.96989455 2.90968366 17 6 C17.14573058 7.47965926 17.24663268 8.96403843 17.31640625 10.44921875 C17.35830078 11.29677734 17.40019531 12.14433594 17.44335938 13.01757812 C17.48267578 13.89865234 17.52199219 14.77972656 17.5625 15.6875 C17.60568359 16.58017578 17.64886719 17.47285156 17.69335938 18.39257812 C17.79935353 20.59490108 17.90142051 22.79733473 18 25 C18.99 25.33 19.98 25.66 21 26 C21 26.66 21 27.32 21 28 C16.38 28 11.76 28 7 28 C7 27.34 7 26.68 7 26 C7.66 25.67 8.32 25.34 9 25 C9 18.73 9 12.46 9 6 C6.03 6 3.06 6 0 6 C0.33 12.27 0.66 18.54 1 25 C1.66 25.33 2.32 25.66 3 26 C3 26.66 3 27.32 3 28 C-1.62 28 -6.24 28 -11 28 C-11 27.34 -11 26.68 -11 26 C-10.01 25.67 -9.02 25.34 -8 25 C-8 18.4 -8 11.8 -8 5 C-8.66 4.67 -9.32 4.34 -10 4 C-10 3.34 -10 2.68 -10 2 C-8.7090864 1.66376204 -7.41723903 1.33110751 -6.125 1 C-5.40570313 0.814375 -4.68640625 0.62875 -3.9453125 0.4375 C-2 0 -2 0 0 0 Z " fill="#111111" transform="translate(243,102)"/>
<path d="M0 0 C0 1.32 0 2.64 0 4 C1.299375 3.01 1.299375 3.01 2.625 2 C6.30066901 -0.17817423 7.83198845 -0.79812987 12 0 C14.89589909 2.07954771 16.72231256 3.71759636 17.49487305 7.28540039 C17.71582421 9.97012233 17.79536745 12.61888286 17.8125 15.3125 C17.83763672 16.24384766 17.86277344 17.17519531 17.88867188 18.13476562 C17.94735998 20.42360186 17.98377168 22.71053426 18 25 C18.99 25.33 19.98 25.66 21 26 C21 26.66 21 27.32 21 28 C16.38 28 11.76 28 7 28 C7 27.34 7 26.68 7 26 C7.66 25.67 8.32 25.34 9 25 C9.05379226 22.04142591 9.09357093 19.08382279 9.125 16.125 C9.14175781 15.28324219 9.15851563 14.44148437 9.17578125 13.57421875 C9.18222656 12.76855469 9.18867188 11.96289062 9.1953125 11.1328125 C9.20578613 10.38918457 9.21625977 9.64555664 9.22705078 8.87939453 C9.1665597 6.75509765 9.1665597 6.75509765 7 5 C5.02 5.33 3.04 5.66 1 6 C1 12.27 1 18.54 1 25 C1.66 25.33 2.32 25.66 3 26 C3 26.66 3 27.32 3 28 C-1.62 28 -6.24 28 -11 28 C-11 27.34 -11 26.68 -11 26 C-10.01 25.67 -9.02 25.34 -8 25 C-8 18.4 -8 11.8 -8 5 C-8.66 4.67 -9.32 4.34 -10 4 C-10 3.34 -10 2.68 -10 2 C-3.375 0 -3.375 0 0 0 Z " fill="#0C0C0C" transform="translate(320,158)"/>
<path d="M0 0 C2.84505269 1.35936978 3.85856856 2.48381806 6 5 C6 7.31 6 9.62 6 12 C-1.92 12.495 -1.92 12.495 -10 13 C-8.7284644 19.59529756 -8.7284644 19.59529756 -6 22 C-1.82016197 22.20225023 1.99047425 22.33650858 6 21 C4.47776631 25.26225433 2.00163644 27.03556029 -2 29 C-6.94090552 29.45233642 -10.09713581 28.71476748 -14 25.625 C-17.65784686 20.82407599 -17.65463191 15.82804239 -17 10 C-13.43262532 2.86525065 -8.33461584 -1.85213685 0 0 Z " fill="#0D0D0D" transform="translate(452,158)"/>
<path d="M0 0 C3.5386994 1.65139305 4.81070153 2.71605229 7 6 C7.1875 8.625 7.1875 8.625 7 11 C6 12 6 12 2.40234375 12.09765625 C0.91403133 12.0909822 -0.57426432 12.07902183 -2.0625 12.0625 C-3.20041992 12.05573242 -3.20041992 12.05573242 -4.36132812 12.04882812 C-6.24091871 12.0370068 -8.12046899 12.01907078 -10 12 C-9.05066101 15.35433109 -8.10251165 18.69246505 -7 22 C-5.58344207 22.0272415 -4.16672955 22.04650467 -2.75 22.0625 C-1.96109375 22.07410156 -1.1721875 22.08570313 -0.359375 22.09765625 C1.90691002 22.00385306 3.8288895 21.63241063 6 21 C4.48941618 25.22963468 1.87685679 26.91246173 -2 29 C-5.96406718 29.66067786 -7.61950078 29.20144076 -11.1875 27.3125 C-14.0967289 24.92046735 -15.57948342 23.47237386 -17 20 C-17.56665861 14.14452769 -16.92572414 10.24612604 -14 5 C-9.28337911 0.62849771 -6.44675757 -0.43706831 0 0 Z " fill="#111111" transform="translate(378,158)"/>
<path d="M0 0 C2.78509652 1.3651239 3.86578838 2.55346473 6 5 C6 7.31 6 9.62 6 12 C-1.92 12.495 -1.92 12.495 -10 13 C-8.7284644 19.59529756 -8.7284644 19.59529756 -6 22 C-1.82016197 22.20225023 1.99047425 22.33650858 6 21 C4.5904679 24.40636923 3.26959946 26.23944644 0 28 C-3.0827775 28.94395125 -5.78544221 29.37278065 -9 29 C-12.98171346 26.77644573 -15.55332978 24.34001065 -17 20 C-17.57480692 15.43064882 -18.05390748 10.93960171 -15.80078125 6.79296875 C-11.29830994 1.40588091 -7.18289757 -0.86690143 0 0 Z " fill="#121212" transform="translate(197,102)"/>
<path d="M0 0 C2.78567706 1.35772495 3.88382156 2.5663948 6 5 C6.4375 8.25 6.4375 8.25 6 11 C5 12 5 12 1.40234375 12.09765625 C-0.08596867 12.0909822 -1.57426432 12.07902183 -3.0625 12.0625 C-4.20041992 12.05573242 -4.20041992 12.05573242 -5.36132812 12.04882812 C-7.24091871 12.0370068 -9.12046899 12.01907078 -11 12 C-10.54857119 13.29409592 -10.08858979 14.58521059 -9.625 15.875 C-9.36976563 16.59429687 -9.11453125 17.31359375 -8.8515625 18.0546875 C-8.06122217 20.18157994 -8.06122217 20.18157994 -6 22 C-1.82016197 22.20225023 1.99047425 22.33650858 6 21 C4.59527724 24.39474666 3.23607557 26.21164245 0 28 C-4.52484833 29.02173994 -6.901309 29.35241032 -11.3125 27.9375 C-15.37627368 25.00780269 -16.60936564 22.36550807 -17.421875 17.4453125 C-17.82161684 11.89505077 -17.31659577 8.65109844 -13.625 4.375 C-9.46848691 0.18427693 -5.93778447 -0.96763895 0 0 Z " fill="#0C0C0C" transform="translate(201,158)"/>
<path d="M0 0 C0.33 0 0.66 0 1 0 C1.13806703 1.49726023 1.23335319 2.99847195 1.3125 4.5 C1.37050781 5.3353125 1.42851563 6.170625 1.48828125 7.03125 C0.19677889 14.88358432 -6.02418803 20.37531196 -11.5625 25.625 C-20.10566286 33.43046396 -20.10566286 33.43046396 -24 44 C-24.66 44 -25.32 44 -26 44 C-28.59208658 39.27325388 -28.37971688 35.07004395 -27 30 C-22.20422139 19.71287185 -12.11504149 11.55304905 -3.55859375 4.4375 C-1.75428903 2.88661937 -1.75428903 2.88661937 0 0 Z " fill="#F1F1F1" transform="translate(107,125)"/>
<path d="M0 0 C4.62 0 9.24 0 14 0 C13.773125 0.969375 13.54625 1.93875 13.3125 2.9375 C12.68931018 7.07244866 13.81345175 10.14930225 15.30859375 13.984375 C16 16 16 16 16 19 C16.66 19 17.32 19 18 19 C18.103125 18.030625 18.20625 17.06125 18.3125 16.0625 C18.94629879 11.51406161 20.44755827 7.30582896 22 3 C21.01 3 20.02 3 19 3 C19 2.01 19 1.02 19 0 C22.63 0 26.26 0 30 0 C29 3 29 3 27.5703125 4.41796875 C21.87983868 10.15090879 19.28369826 21.07397419 16.25 28.4375 C15.84894043 29.40921143 15.44788086 30.38092285 15.03466797 31.38208008 C14.65713379 32.30657959 14.27959961 33.2310791 13.890625 34.18359375 C13.55063477 35.01431396 13.21064453 35.84503418 12.86035156 36.70092773 C12.07881762 38.78937982 11.48843595 40.82670986 11 43 C9.35 43 7.7 43 6 43 C5.67 41.35 5.34 39.7 5 38 C6.175625 37.13375 6.175625 37.13375 7.375 36.25 C10.49925479 33.61358712 10.49925479 33.61358712 12 30 C11.51495567 24.16454361 9.80081551 19.12363864 7.6875 13.6875 C7.39166016 12.87732422 7.09582031 12.06714844 6.79101562 11.23242188 C6.49259766 10.45833984 6.19417969 9.68425781 5.88671875 8.88671875 C5.62076904 8.18764404 5.35481934 7.48856934 5.08081055 6.76831055 C3.72671796 4.55288417 2.37296461 3.95454187 0 3 C0 2.01 0 1.02 0 0 Z " fill="#111111" transform="translate(459,158)"/>
<path d="M0 0 C0.33 13.53 0.66 27.06 1 41 C1.99 41.33 2.98 41.66 4 42 C4 42.66 4 43.32 4 44 C-0.95 44 -5.9 44 -11 44 C-11 43.34 -11 42.68 -11 42 C-9.515 41.505 -9.515 41.505 -8 41 C-8 29.12 -8 17.24 -8 5 C-8.99 4.67 -9.98 4.34 -11 4 C-11 3.34 -11 2.68 -11 2 C-9.5422647 1.664061 -8.08378894 1.33133376 -6.625 1 C-5.40683594 0.7215625 -5.40683594 0.7215625 -4.1640625 0.4375 C-2 0 -2 0 0 0 Z " fill="#0C0C0C" transform="translate(308,86)"/>
<path d="M0 0 C0.99 0.99 1.98 1.98 3 3 C1.56478141 7.71355431 -1.19413222 10.60149297 -4.63671875 13.96484375 C-5.19438431 14.52063614 -5.75204987 15.07642853 -6.32661438 15.64906311 C-7.50582978 16.82157299 -8.68862925 17.99048793 -9.87475586 19.15600586 C-11.67097282 20.92125774 -13.45648176 22.6967722 -15.24023438 24.47460938 C-16.39261339 25.61780856 -17.5455897 26.76040602 -18.69921875 27.90234375 C-19.48869148 28.68544167 -19.48869148 28.68544167 -20.29411316 29.48435974 C-23.58478453 32.71346956 -26.98745818 35.74214491 -30.54072571 38.68061829 C-32.36551418 40.33047435 -33.42495449 42.04789066 -34.5 44.25 C-36.24664939 47.31101766 -37.38998947 48.53977661 -40.8125 49.5 C-42.3903125 49.7475 -42.3903125 49.7475 -44 50 C-41.41448044 41.72633739 -34.70465681 35.40111787 -28.703125 29.4375 C-28.02828064 28.76074219 -27.35343628 28.08398438 -26.65814209 27.38671875 C-25.24541497 25.97264138 -23.83020226 24.56104315 -22.41259766 23.15185547 C-20.23491927 20.98499418 -18.06825317 18.80752469 -15.90234375 16.62890625 C-14.52407921 15.25196154 -13.14519535 13.87563641 -11.765625 12.5 C-11.11668274 11.84700928 -10.46774048 11.19401855 -9.7991333 10.52124023 C-9.1980072 9.92641846 -8.5968811 9.33159668 -7.97753906 8.71875 C-7.44936584 8.19216797 -6.92119263 7.66558594 -6.37701416 7.12304688 C-5 6 -5 6 -3 6 C-2.690625 5.38125 -2.38125 4.7625 -2.0625 4.125 C-1.375 2.75 -0.6875 1.375 0 0 Z " fill="#151515" transform="translate(89,97)"/>
<path d="M0 0 C3.96 0 7.92 0 12 0 C10.68 0.99 9.36 1.98 8 3 C7.42939144 6.24111373 7.42939144 6.24111373 7.57421875 9.96875 C7.57915092 10.98382629 7.57915092 10.98382629 7.58418274 12.01940918 C7.59459447 13.44842156 7.61452953 14.87739189 7.64331055 16.30615234 C7.68734085 18.49209862 7.70474079 20.67694662 7.71679688 22.86328125 C7.61281873 30.03689587 7.61281873 30.03689587 9 37 C11.01508358 37.73323796 11.01508358 37.73323796 13 38 C13 38.66 13 39.32 13 40 C7.06 40 1.12 40 -5 40 C-5 39.34 -5 38.68 -5 38 C-3.35 37.34 -1.7 36.68 0 36 C0.33 26.1 0.66 16.2 1 6 C0.34 6 -0.32 6 -1 6 C-0.67 4.02 -0.34 2.04 0 0 Z " fill="#040404" transform="translate(263,146)"/>
<path d="M0 0 C0 2.97 0 5.94 0 9 C2.31 9 4.62 9 7 9 C7 9.66 7 10.32 7 11 C4.69 11 2.38 11 0 11 C0.33 17.93 0.66 24.86 1 32 C2.98 32 4.96 32 7 32 C6 35 6 35 4.25 36.1875 C1.55690408 37.16000686 -0.15784465 37.4263233 -3 37 C-5.140625 35.6796875 -5.140625 35.6796875 -7 33 C-7.50357133 29.2408707 -7.37485214 25.53398017 -7.25 21.75 C-7.23195313 20.71875 -7.21390625 19.6875 -7.1953125 18.625 C-7.14822712 16.08238936 -7.0824805 13.54166838 -7 11 C-8.32 10.67 -9.64 10.34 -11 10 C-9.68 9.67 -8.36 9.34 -7 9 C-7.103125 8.2575 -7.20625 7.515 -7.3125 6.75 C-7 4 -7 4 -4.625 1.6875 C-2 0 -2 0 0 0 Z " fill="#0F0F0F" transform="translate(352,150)"/>
<path d="M0 0 C0.33 1.32 0.66 2.64 1 4 C1.556875 3.319375 2.11375 2.63875 2.6875 1.9375 C3.8321875 0.9784375 3.8321875 0.9784375 5 0 C7.75 0.25 7.75 0.25 10 1 C11.125 4.75 11.125 4.75 10 7 C8.700625 6.979375 7.40125 6.95875 6.0625 6.9375 C4.70834367 6.91600546 3.35243917 6.92851801 2 7 C0.55611429 8.21428988 0.55611429 8.21428988 0.90234375 11.81640625 C0.90901911 13.39846682 0.92098125 14.98051159 0.9375 16.5625 C0.94201172 17.36880859 0.94652344 18.17511719 0.95117188 19.00585938 C0.96299482 21.00393756 0.98093086 23.00197783 1 25 C2.32 25.33 3.64 25.66 5 26 C5 26.66 5 27.32 5 28 C-0.28 28 -5.56 28 -11 28 C-11 27.34 -11 26.68 -11 26 C-10.01 25.34 -9.02 24.68 -8 24 C-7.58519893 21.97112689 -7.58519893 21.97112689 -7.70703125 19.6484375 C-7.71669922 18.79765625 -7.72636719 17.946875 -7.73632812 17.0703125 C-7.76146484 16.18085938 -7.78660156 15.29140625 -7.8125 14.375 C-7.82603516 13.4778125 -7.83957031 12.580625 -7.85351562 11.65625 C-7.88893075 9.43690211 -7.93831539 7.21874812 -8 5 C-8.99 4.67 -9.98 4.34 -11 4 C-11 3.34 -11 2.68 -11 2 C-7.12315913 0.80712589 -4.08378077 0 0 0 Z " fill="#101010" transform="translate(398,158)"/>
<path d="M0 0 C0.33 1.65 0.66 3.3 1 5 C1.556875 4.175 2.11375 3.35 2.6875 2.5 C5 0 5 0 7.6875 -0.375 C10 0 10 0 11 1 C11.04063832 2.66617115 11.042721 4.33388095 11 6 C10.2575 6.144375 9.515 6.28875 8.75 6.4375 C4.54104514 7.0149278 4.54104514 7.0149278 1 9 C0.92680379 11.69654854 0.90757463 14.36691458 0.9375 17.0625 C0.94201172 17.82111328 0.94652344 18.57972656 0.95117188 19.36132812 C0.9629932 21.24091871 0.98092922 23.12046899 1 25 C2.32 25.33 3.64 25.66 5 26 C5 26.66 5 27.32 5 28 C-0.28 28 -5.56 28 -11 28 C-11 27.34 -11 26.68 -11 26 C-10.01 25.67 -9.02 25.34 -8 25 C-8 18.4 -8 11.8 -8 5 C-8.66 4.67 -9.32 4.34 -10 4 C-10 3.34 -10 2.68 -10 2 C-3.375 0 -3.375 0 0 0 Z " fill="#0E0E0E" transform="translate(422,158)"/>
<path d="M0 0 C0.99 0.66 1.98 1.32 3 2 C2.67 3.32 2.34 4.64 2 6 C-2 6 -2 6 -5 4 C-7.54230847 3.58320703 -7.54230847 3.58320703 -10 4 C-12.15164703 7.22747055 -12.27245079 8.20505639 -12.25 11.9375 C-12.25515625 12.79214844 -12.2603125 13.64679688 -12.265625 14.52734375 C-11.98343249 17.154224 -11.38438655 18.76520456 -10 21 C-7.39712533 22.952156 -6.21272514 23.02170665 -2.9375 22.6875 C0.03616818 22.03889786 0.03616818 22.03889786 3 21 C2.9375 22.75 2.9375 22.75 2 25 C-2.35498808 28.07410923 -5.54725157 29.92812739 -11 29 C-15.31455798 26.71582225 -18.13452098 24.56005984 -20 20 C-20.53580592 14.3740378 -20.18905893 10.83857217 -17 6 C-14.5625 3.75 -14.5625 3.75 -12 2 C-11.401875 1.5875 -10.80375 1.175 -10.1875 0.75 C-6.69007428 -0.44911739 -3.69490439 -0.2345971 0 0 Z " fill="#0F0F0F" transform="translate(414,102)"/>
<path d="M0 0 C0.99 0.66 1.98 1.32 3 2 C2.67 3.65 2.34 5.3 2 7 C1.484375 6.690625 0.96875 6.38125 0.4375 6.0625 C-2.7179775 4.68703545 -5.57619923 4.25361487 -9 4 C-11.68125591 6.68125591 -11.29880654 8.14124916 -11.3125 11.875 C-11.32925781 12.92429687 -11.34601563 13.97359375 -11.36328125 15.0546875 C-10.95601219 18.35663234 -10.43044343 19.74200488 -8 22 C-5.82596477 22.51922721 -5.82596477 22.51922721 -3.5 22.3125 C-2.7265625 22.28800781 -1.953125 22.26351562 -1.15625 22.23828125 C1.18084889 22.05644612 1.18084889 22.05644612 4 21 C2.48262587 25.24864756 -0.02954476 27.01477238 -4 29 C-8.53925312 29.47020152 -11.90273963 28.41065224 -15.4375 25.5625 C-18.8189006 22.1810994 -19.22484732 20.48441484 -19.4375 15.8125 C-19.39949561 11.67002203 -19.02300392 9.22876719 -16.375 6 C-11.4347084 1.1754061 -6.96100844 -0.65669891 0 0 Z " fill="#0F0F0F" transform="translate(226,102)"/>
<path d="M0 0 C3.66464055 0.4952217 5.70832354 1.0208206 8 4 C9.1066598 7.31997939 9.20240272 9.94306627 9.25 13.4375 C9.28867187 15.13712891 9.28867187 15.13712891 9.328125 16.87109375 C8.97468205 20.24142471 8.27823183 21.5598938 6 24 C2.6875 23.9375 2.6875 23.9375 -1 23 C-4.64567036 17.59029559 -4.93383225 11.37954874 -4 5 C-2 1.8125 -2 1.8125 0 0 Z " fill="#F2F2F2" transform="translate(290,160)"/>
<path d="M0 0 C2.8125 0.1875 2.8125 0.1875 6 1 C9.12109344 4.92864908 9.40664735 8.13078854 9.375 13.0625 C9.38273437 14.27035156 9.39046875 15.47820312 9.3984375 16.72265625 C8.97897232 20.17296299 8.46334759 21.59558417 6 24 C3.5 24.4375 3.5 24.4375 1 24 C-1.94624417 21.92671707 -3.05368828 19.42128085 -4 16 C-4.55628359 11.03496144 -4.86476746 6.6518337 -2 2.375 C-1.34 1.59125 -0.68 0.8075 0 0 Z " fill="#F2F2F2" transform="translate(278,104)"/>
<path d="M0 0 C3.36634203 0.18196443 4.71852265 0.72211817 7.140625 3.11328125 C9.44034583 6.68364615 9.50513825 8.8463824 9.4375 13.0625 C9.43621094 14.27035156 9.43492187 15.47820312 9.43359375 16.72265625 C8.97946657 20.15520313 8.45157178 21.60133984 6 24 C3.5 24.4375 3.5 24.4375 1 24 C-1.93830295 21.93230533 -3.03751212 19.40572634 -4 16 C-4.62111873 10.20646146 -4.16039495 6.05663192 -1 1 C-0.67 0.67 -0.34 0.34 0 0 Z " fill="#F3F3F3" transform="translate(431,104)"/>
<path d="M0 0 C2.875 0.125 2.875 0.125 6 1 C9.11407758 4.93625227 9.40667291 8.12680442 9.375 13.0625 C9.38273437 14.27035156 9.39046875 15.47820312 9.3984375 16.72265625 C8.97897232 20.17296299 8.46334759 21.59558417 6 24 C3.5 24.4375 3.5 24.4375 1 24 C-1.93160118 21.93702139 -3.02031494 19.39121753 -4 16 C-4.48392624 9.99931462 -3.72766182 6.34621717 -1 1 C-0.67 0.67 -0.34 0.34 0 0 Z " fill="#F3F3F3" transform="translate(326,104)"/>
<path d="M0 0 C1.16144531 0.00902344 2.32289063 0.01804687 3.51953125 0.02734375 C4.39996094 0.03894531 5.28039062 0.05054687 6.1875 0.0625 C5.375 2 5.375 2 4.1875 4.0625 C3.1975 4.3925 2.2075 4.7225 1.1875 5.0625 C1.31125 6.6403125 1.31125 6.6403125 1.4375 8.25 C1.14642025 12.68896623 0.47490903 14.12113402 -2.8125 17.0625 C-5.75 18.1875 -5.75 18.1875 -8.8125 18.0625 C-11.6875 16.25 -11.6875 16.25 -13.8125 13.0625 C-14.32804801 9.67157596 -14.38183248 6.44853001 -13.8125 3.0625 C-10.0411108 -0.7088892 -5.08014504 -0.0513146 0 0 Z " fill="#171717" transform="translate(368.8125,102.9375)"/>
<path d="M0 0 C1 1 1 1 1.11352539 2.85766602 C1.10828857 3.64842529 1.10305176 4.43918457 1.09765625 5.25390625 C1.09443359 6.10791016 1.09121094 6.96191406 1.08789062 7.84179688 C1.07951172 8.73962891 1.07113281 9.63746094 1.0625 10.5625 C1.05798828 11.46419922 1.05347656 12.36589844 1.04882812 13.29492188 C1.03700225 15.53001314 1.0205222 17.76497437 1 20 C0.01 20.33 -0.98 20.66 -2 21 C-2 21.66 -2 22.32 -2 23 C2.62 23 7.24 23 12 23 C12 23.33 12 23.66 12 24 C9.56242587 24.02698422 7.12515085 24.04683099 4.6875 24.0625 C3.99720703 24.07087891 3.30691406 24.07925781 2.59570312 24.08789062 C-0.5483025 24.10307906 -2.99420019 24.00193327 -6 23 C-6 22.34 -6 21.68 -6 21 C-6.99 20.67 -7.98 20.34 -9 20 C-9 13.73 -9 7.46 -9 1 C-6.01787087 -0.49106457 -3.28390342 -0.11941467 0 0 Z " fill="#F5F5F5" transform="translate(252,107)"/>
<path d="M0 0 C6.47630923 -0.36658354 6.47630923 -0.36658354 8.875 1.3125 C10.84460579 4.26690868 11.15429903 6.99865078 11.31640625 10.44921875 C11.37924805 11.72055664 11.37924805 11.72055664 11.44335938 13.01757812 C11.48267578 13.89865234 11.52199219 14.77972656 11.5625 15.6875 C11.60568359 16.58017578 11.64886719 17.47285156 11.69335938 18.39257812 C11.79935353 20.59490108 11.90142051 22.79733473 12 25 C12.99 25.33 13.98 25.66 15 26 C15 26.66 15 27.32 15 28 C10.38 28 5.76 28 1 28 C1 27.34 1 26.68 1 26 C1.66 25.67 2.32 25.34 3 25 C3 18.73 3 12.46 3 6 C0.525 5.01 0.525 5.01 -2 4 C-1.34 2.68 -0.68 1.36 0 0 Z " fill="#0B0B0B" transform="translate(249,102)"/>
<path d="M0 0 C3.5 0.125 3.5 0.125 4.5 1.125 C4.59860131 2.52848735 4.63078937 3.93680477 4.6328125 5.34375 C4.63474609 6.61798828 4.63474609 6.61798828 4.63671875 7.91796875 C4.63285156 8.81128906 4.62898437 9.70460937 4.625 10.625 C4.62886719 11.51832031 4.63273438 12.41164062 4.63671875 13.33203125 C4.63542969 14.18152344 4.63414062 15.03101563 4.6328125 15.90625 C4.63168457 16.69064453 4.63055664 17.47503906 4.62939453 18.28320312 C4.5 20.125 4.5 20.125 3.5 21.125 C0.6875 21.5 0.6875 21.5 -2.5 21.125 C-6.58753452 16.92699157 -7.78371265 14.02089105 -7.73046875 8.1640625 C-7.15456554 3.06878323 -4.92409678 0.1758606 0 0 Z " fill="#F5F5F5" transform="translate(164.5,160.875)"/>
<path d="M0 0 C0.01458252 0.71655762 0.02916504 1.43311523 0.04418945 2.17138672 C0.11849 5.40647983 0.21520861 8.64052019 0.3125 11.875 C0.33505859 13.00292969 0.35761719 14.13085938 0.38085938 15.29296875 C0.41630859 16.36933594 0.45175781 17.44570312 0.48828125 18.5546875 C0.51446533 19.54968262 0.54064941 20.54467773 0.56762695 21.56982422 C0.78165161 22.77276123 0.78165161 22.77276123 1 24 C1.99 24.66 2.98 25.32 4 26 C4 26.66 4 27.32 4 28 C-0.95 28 -5.9 28 -11 28 C-11 27.34 -11 26.68 -11 26 C-10.01 25.67 -9.02 25.34 -8 25 C-8 18.4 -8 11.8 -8 5 C-8.66 4.67 -9.32 4.34 -10 4 C-10 3.34 -10 2.68 -10 2 C-3.375 0 -3.375 0 0 0 Z " fill="#0E0E0E" transform="translate(387,102)"/>
<path d="M0 0 C2.97 0.495 2.97 0.495 6 1 C5.67 1.66 5.34 2.32 5 3 C4.9746634 4.45826205 4.95445795 5.91661645 4.9375 7.375 C4.64867942 10.17746218 4.50478341 11.52171772 2.4375 13.48046875 C-2.35604435 16.07385114 -6.63415244 16.80487713 -12 16 C-14.90799783 13.4555019 -15.90702057 12.04601863 -16.25 8.1875 C-16.1675 7.465625 -16.085 6.74375 -16 6 C-12.32612505 5.14701624 -8.9552607 4.89210529 -5.1875 4.9375 C-4.21167969 4.94652344 -3.23585937 4.95554687 -2.23046875 4.96484375 C-1.49441406 4.97644531 -0.75835937 4.98804687 0 5 C0 3.35 0 1.7 0 0 Z " fill="#F2F2F2" transform="translate(203,109)"/>
<path d="M0 0 C-0.66 0.94875 -1.32 1.8975 -2 2.875 C-4.63266047 7.49386694 -4.70387969 11.80674133 -4 17 C-2.32647044 21.75634717 -0.09982641 24.1190409 4 27 C-3.9529703 27.62376238 -3.9529703 27.62376238 -7.9375 25.25 C-12.04339529 20.7708415 -12.61171776 16.80560251 -12.515625 10.83984375 C-11.76369404 6.69852704 -9.81795136 4.4055724 -7.01953125 1.36328125 C-4.51631757 -0.32650903 -2.96020545 -0.27096872 0 0 Z " fill="#0B0B0B" transform="translate(279,103)"/>
<path d="M0 0 C7.76785714 -0.66964286 7.76785714 -0.66964286 11.5 2.0625 C14 5 14 5 14 12 C6.08 12.495 6.08 12.495 -2 13 C-2.33 13.99 -2.66 14.98 -3 16 C-3.99075571 13.35798478 -4.25930117 11.63166257 -3.17578125 8.9921875 C-2.44567128 7.60369765 -1.69103655 6.22777215 -0.91015625 4.8671875 C0.21908213 2.89675309 0.21908213 2.89675309 0 0 Z " fill="#191919" transform="translate(444,158)"/>
<path d="M0 0 C3.34676814 1.03865218 4.02532602 2.04612953 5.75 5.1875 C7.61026159 10.11412686 7.6627004 14.22117262 5.8125 19.1875 C3.74455584 22.39637887 2.3374345 24.11362398 -1 26 C-4.03209465 26.31594936 -6.96447246 26.23808059 -10 26 C-10 25.67 -10 25.34 -10 25 C-9.05125 24.731875 -8.1025 24.46375 -7.125 24.1875 C-3.74732727 23.25013412 -3.74732727 23.25013412 -2 20 C-1.75785174 18.00225299 -1.75785174 18.00225299 -1.875 15.83984375 C-1.89046875 15.04642578 -1.9059375 14.25300781 -1.921875 13.43554688 C-1.94765625 12.61119141 -1.9734375 11.78683594 -2 10.9375 C-2.05094028 9.30104363 -2.09303378 7.66428069 -2.125 6.02734375 C-2.14820313 5.30281006 -2.17140625 4.57827637 -2.1953125 3.83178711 C-2 2 -2 2 0 0 Z " fill="#0C0C0C" transform="translate(441,104)"/>
<path d="M0 0 C1.16402344 0.00773438 1.16402344 0.00773438 2.3515625 0.015625 C3.12242187 0.01046875 3.89328125 0.0053125 4.6875 0 C7.1757986 0.28874455 8.81890448 1.02423271 10.9765625 2.265625 C11.4565625 7.665625 11.4565625 7.665625 9.4765625 10.140625 C5.92436855 11.73911228 2.80630143 11.97048493 -1.0234375 11.265625 C-3.5859375 9.578125 -3.5859375 9.578125 -5.0234375 7.265625 C-4.84578873 3.53500081 -4.14884822 0.54463645 0 0 Z " fill="#F2F2F2" transform="translate(357.0234375,130.734375)"/>
<path d="M0 0 C0.33 0.99 0.66 1.98 1 3 C-1.15799277 5.36216967 -3.35559781 7.68353529 -5.5625 10 C-6.47612305 11.00160156 -6.47612305 11.00160156 -7.40820312 12.0234375 C-12.11260939 16.90208104 -12.11260939 16.90208104 -16.96484375 17.4375 C-17.96644531 17.293125 -18.96804687 17.14875 -20 17 C-16.44692306 12.69890686 -12.74249194 8.58446278 -8.875 4.5625 C-8.04742187 3.69753906 -7.21984375 2.83257812 -6.3671875 1.94140625 C-4 0 -4 0 0 0 Z " fill="#191919" transform="translate(92,118)"/>
<path d="M0 0 C2.5625 0.25 2.5625 0.25 5 1 C6.23887548 3.47775095 6.16741669 5.23653707 6.1875 8 C6.20167969 8.886875 6.21585937 9.77375 6.23046875 10.6875 C6 13 6 13 4 15 C1.4375 14.75 1.4375 14.75 -1 14 C-2.23887548 11.52224905 -2.16741669 9.76346293 -2.1875 7 C-2.20167969 6.113125 -2.21585937 5.22625 -2.23046875 4.3125 C-2 2 -2 2 0 0 Z " fill="#F3F3F3" transform="translate(357,104)"/>
<path d="M0 0 C0.33 0.66 0.66 1.32 1 2 C1.66 2 2.32 2 3 2 C3 11.9 3 21.8 3 32 C2.67 32 2.34 32 2 32 C1.67 23.42 1.34 14.84 1 6 C-2.96 14.91 -2.96 14.91 -7 24 C-8.65 24 -10.3 24 -12 24 C-11 22 -11 22 -9 19 C-8.25632525 17.52799288 -7.53719646 16.04346105 -6.8359375 14.55078125 C-6.43632812 13.70322266 -6.03671875 12.85566406 -5.625 11.98242188 C-5.2125 11.10134766 -4.8 10.22027344 -4.375 9.3125 C-3.95476562 8.41982422 -3.53453125 7.52714844 -3.1015625 6.60742188 C-2.06557168 4.40594138 -1.03180452 2.20344487 0 0 Z " fill="#393939" transform="translate(261,150)"/>
<path d="M0 0 C0.33 1.32 0.66 2.64 1 4 C1.66 4 2.32 4 3 4 C3.03867188 5.48113281 3.03867188 5.48113281 3.078125 6.9921875 C3.13484375 8.27351562 3.1915625 9.55484375 3.25 10.875 C3.29640625 12.15117187 3.3428125 13.42734375 3.390625 14.7421875 C3.62555056 18.09188105 3.62555056 18.09188105 6.046875 19.4453125 C6.69140625 19.62835938 7.3359375 19.81140625 8 20 C8 20.66 8 21.32 8 22 C3.38 22 -1.24 22 -6 22 C-6 21.34 -6 20.68 -6 20 C-4.68 19.67 -3.36 19.34 -2 19 C-1.34 12.73 -0.68 6.46 0 0 Z " fill="#181818" transform="translate(230,164)"/>
<path d="M0 0 C3.63 0 7.26 0 11 0 C10 3 10 3 8.59765625 4.3515625 C6.53519828 6.47957537 5.62171033 8.66505159 4.4375 11.375 C3.81681641 12.77878906 3.81681641 12.77878906 3.18359375 14.2109375 C2.0872082 16.79449949 1.03001765 19.38935619 0 22 C-0.33 21.34 -0.66 20.68 -1 20 C-1.66 19.67 -2.32 19.34 -3 19 C-2.34 19 -1.68 19 -1 19 C-0.896875 18.030625 -0.79375 17.06125 -0.6875 16.0625 C-0.05370121 11.51406161 1.44755827 7.30582896 3 3 C2.01 3 1.02 3 0 3 C0 2.01 0 1.02 0 0 Z " fill="#1C1C1C" transform="translate(478,158)"/>
<path d="M0 0 C3.65316671 1.24976756 4.78065836 1.67098753 7 5 C7.1875 7.625 7.1875 7.625 7 10 C6 11 6 11 3.93359375 11.09765625 C3.10988281 11.08605469 2.28617187 11.07445312 1.4375 11.0625 C0.61121094 11.05347656 -0.21507812 11.04445312 -1.06640625 11.03515625 C-1.70449219 11.02355469 -2.34257812 11.01195312 -3 11 C-2.67 10.34 -2.34 9.68 -2 9 C-1.34 9 -0.68 9 0 9 C-0.185625 7.88625 -0.37125 6.7725 -0.5625 5.625 C-1 2 -1 2 0 0 Z " fill="#101010" transform="translate(378,159)"/>
<path d="M0 0 C3.69230769 0.69230769 3.69230769 0.69230769 5 2 C5 4.31 5 6.62 5 9 C-0.28 9 -5.56 9 -11 9 C-7.00889681 7.0044484 -5.30013434 6.80453935 -1 7 C-1.020625 6.030625 -1.04125 5.06125 -1.0625 4.0625 C-1 1 -1 1 0 0 Z " fill="#090909" transform="translate(198,105)"/>
<path d="M0 0 C0.99 0.66 1.98 1.32 3 2 C2.67 3.65 2.34 5.3 2 7 C1.484375 6.690625 0.96875 6.38125 0.4375 6.0625 C-2.77882172 4.66051361 -5.49462379 4.18449348 -9 4 C-11.72981832 5.35400645 -11.72981832 5.35400645 -14 7 C-14.99 7 -15.98 7 -17 7 C-15.90081184 6.01524786 -14.7954398 5.03739527 -13.6875 4.0625 C-13.07261719 3.51722656 -12.45773438 2.97195312 -11.82421875 2.41015625 C-8.12668988 -0.44810482 -4.50507553 -0.24134333 0 0 Z " fill="#121212" transform="translate(226,102)"/>
<path d="M0 0 C1.9375 0.875 1.9375 0.875 3.9375 3.875 C3.9375 5.195 3.9375 6.515 3.9375 7.875 C0.6375 7.875 -2.6625 7.875 -6.0625 7.875 C-5.69537028 5.15824005 -5.33505401 3.26436287 -3.75 1 C-2.0625 -0.125 -2.0625 -0.125 0 0 Z " fill="#E7E7E7" transform="translate(374.0625,160.125)"/>
<path d="M0 0 C2.625 0.375 2.625 0.375 5 1 C5.33 3.31 5.66 5.62 6 8 C3.03 8 0.06 8 -3 8 C-2.25 2.25 -2.25 2.25 0 0 Z " fill="#E9E9E9" transform="translate(445,160)"/>
<path d="M0 0 C2.625 0.375 2.625 0.375 5 1 C5.33 3.31 5.66 5.62 6 8 C3.03 8 0.06 8 -3 8 C-2.25 2.25 -2.25 2.25 0 0 Z " fill="#E9E9E9" transform="translate(194,160)"/>
<path d="M0 0 C2.625 0.375 2.625 0.375 5 1 C5.33 3.31 5.66 5.62 6 8 C3.03 8 0.06 8 -3 8 C-2.25 2.25 -2.25 2.25 0 0 Z " fill="#E7E7E7" transform="translate(190,104)"/>
<path d="M0 0 C0.99 0.66 1.98 1.32 3 2 C2.67 3.32 2.34 4.64 2 6 C-2 6 -2 6 -5 4 C-7.32387947 3.60612212 -9.65793749 3.26513915 -12 3 C-8.22438081 -0.77561919 -5.06310909 -0.40183405 0 0 Z " fill="#1E1E1E" transform="translate(414,102)"/>
<path d="M0 0 C1.98 0 3.96 0 6 0 C4.51131293 4.60139641 2.25370145 7.50227094 -1 11 C-1.66 11 -2.32 11 -3 11 C-2.69078116 9.54096742 -2.37751201 8.08279278 -2.0625 6.625 C-1.88847656 5.81289062 -1.71445312 5.00078125 -1.53515625 4.1640625 C-1 2 -1 2 0 0 Z " fill="#181818" transform="translate(330,88)"/>
<path d="M0 0 C2.5 0.125 2.5 0.125 3.5 1.125 C3.625 3.625 3.625 3.625 3.5 6.125 C2.5 7.125 2.5 7.125 0.0625 7.3125 C-2.5 7.125 -2.5 7.125 -4.5 5.125 C-3.7519084 0.18759542 -3.7519084 0.18759542 0 0 Z " fill="#121212" transform="translate(383.5,89.875)"/>
<path d="M0 0 C3.63 0 7.26 0 11 0 C10.67 0.99 10.34 1.98 10 3 C9.21625 3.12375 8.4325 3.2475 7.625 3.375 C4.85942178 3.79117993 4.85942178 3.79117993 3 6 C3 5.01 3 4.02 3 3 C2.01 3 1.02 3 0 3 C0 2.01 0 1.02 0 0 Z " fill="#2F2F2F" transform="translate(478,158)"/>
<path d="M0 0 C0.66 0 1.32 0 2 0 C2.99 3.3 3.98 6.6 5 10 C4.01 10 3.02 10 2 10 C1.34 11.32 0.68 12.64 0 14 C0 9.38 0 4.76 0 0 Z " fill="#CECECE" transform="translate(233,154)"/>
<path d="M0 0 C3.96 0 7.92 0 12 0 C11.67 0.99 11.34 1.98 11 3 C3.57142857 4.28571429 3.57142857 4.28571429 0 3 C0 2.01 0 1.02 0 0 Z " fill="#434343" transform="translate(226,145)"/>
<path d="M0 0 C-0.33 0.66 -0.66 1.32 -1 2 C-1.22858114 4.0374763 -1.41024278 6.08040303 -1.5625 8.125 C-1.64628906 9.22070312 -1.73007813 10.31640625 -1.81640625 11.4453125 C-1.87699219 12.28835937 -1.93757812 13.13140625 -2 14 C-2.33 14 -2.66 14 -3 14 C-3.33 10.37 -3.66 6.74 -4 3 C-4.99 2.67 -5.98 2.34 -7 2 C-7 1.34 -7 0.68 -7 0 C-3.86650268 -1.04449911 -3.01031744 -0.93423645 0 0 Z " fill="#383838" transform="translate(172,144)"/>
<path d="M0 0 C6.52307692 -0.36923077 6.52307692 -0.36923077 8.9375 1.5 C9.288125 1.995 9.63875 2.49 10 3 C9.01 3.495 9.01 3.495 8 4 C7.34227572 7.02934491 7.34227572 7.02934491 7 10 C6.67 10 6.34 10 6 10 C5.34 7.03 4.68 4.06 4 1 C2.68 0.67 1.36 0.34 0 0 Z " fill="#212121" transform="translate(190,102)"/>
<path d="M0 0 C1.43739513 -0.02712066 2.87493863 -0.04645067 4.3125 -0.0625 C5.51326172 -0.07990234 5.51326172 -0.07990234 6.73828125 -0.09765625 C9 0 9 0 12 1 C11.34 2.65 10.68 4.3 10 6 C9.46375 5.360625 8.9275 4.72125 8.375 4.0625 C5.55632807 1.61470596 3.66139268 1.33285388 0 1 C0 0.67 0 0.34 0 0 Z " fill="#282728" transform="translate(429,102)"/>
<path d="M0 0 C-1.04874998 2.62187494 -1.64931313 3.79371361 -4.125 5.25 C-4.74375 5.4975 -5.3625 5.745 -6 6 C-6 5.01 -6 4.02 -6 3 C-7.32 2.67 -8.64 2.34 -10 2 C-8.7090864 1.66376204 -7.41723903 1.33110751 -6.125 1 C-5.40570313 0.814375 -4.68640625 0.62875 -3.9453125 0.4375 C-2 0 -2 0 0 0 Z " fill="#2A2A2A" transform="translate(207,179)"/>
<path d="M0 0 C0.99 0.66 1.98 1.32 3 2 C1.87548273 4.9719385 0.77706209 7.33440687 -1 10 C-1 9.34 -1 8.68 -1 8 C-1.66 7.67 -2.32 7.34 -3 7 C-2.34 7 -1.68 7 -1 7 C-0.67 4.69 -0.34 2.38 0 0 Z " fill="#2E2E2E" transform="translate(478,170)"/>
<path d="M0 0 C0.99 0.33 1.98 0.66 3 1 C2.34 2.98 1.68 4.96 1 7 C-0.65 7 -2.3 7 -4 7 C-3 5 -3 5 -1 2 C-0.67 1.34 -0.34 0.68 0 0 Z " fill="#252525" transform="translate(253,167)"/>
<path d="M0 0 C0.99 0.33 1.98 0.66 3 1 C0.03 3.475 0.03 3.475 -3 6 C-3.66 5.01 -4.32 4.02 -5 3 C-2.6875 1.4375 -2.6875 1.4375 0 0 Z " fill="#191919" transform="translate(369,138)"/>
<path d="M0 0 C0.598125 0.20625 1.19625 0.4125 1.8125 0.625 C-1.1575 3.1 -1.1575 3.1 -4.1875 5.625 C-4.5175 4.305 -4.8475 2.985 -5.1875 1.625 C-2.1875 -0.375 -2.1875 -0.375 0 0 Z " fill="#1D1D1D" transform="translate(195.1875,158.375)"/>
<path d="M0 0 C2.31 0 4.62 0 7 0 C5.02 0.99 5.02 0.99 3 2 C3.33 2.66 3.66 3.32 4 4 C2.35 3.67 0.7 3.34 -1 3 C-0.67 2.01 -0.34 1.02 0 0 Z " fill="#D3D3D3" transform="translate(355,121)"/>
<path d="M0 0 C0.66 0.33 1.32 0.66 2 1 C-0.16687491 3.27521866 -2.45620509 5.15794162 -5 7 C-5.66 6.67 -6.32 6.34 -7 6 C-4.69 4.02 -2.38 2.04 0 0 Z " fill="#1C1C1C" transform="translate(216,103)"/>
<path d="M0 0 C1.65 0 3.3 0 5 0 C4.34 1.65 3.68 3.3 3 5 C1.68 4.01 0.36 3.02 -1 2 C-0.67 1.34 -0.34 0.68 0 0 Z " fill="#151515" transform="translate(177,89)"/>
</svg>
