<?xml version="1.0" encoding="UTF-8"?>
<svg id="Capa_2" data-name="Capa 2" xmlns="http://www.w3.org/2000/svg" viewBox="0 0 577.51 570.47">
  <defs>
    <style>
      .cls-1 {
        fill: #ea5a8c;
      }

      .cls-1, .cls-2, .cls-3, .cls-4, .cls-5, .cls-6 {
        stroke-width: 0px;
      }

      .cls-2 {
        fill: none;
      }

      .cls-3 {
        fill: #fff;
      }

      .cls-4 {
        fill: #34bbe4;
      }

      .cls-5 {
        fill: #f4aebc;
      }

      .cls-6 {
        fill: #f18a4c;
      }
    </style>
  </defs>
  <path class="cls-4" d="m482.73,233.59v106.93c-.81,17.35-3.45,34.22-7.75,50.43-27.35,103.36-121.51,179.54-233.47,179.54C108.12,570.47,0,462.37,0,329.01c0-104.77,66.74-193.95,160.03-227.37,22.16-7.94,45.82-12.73,70.43-13.84h106.67c-26.22,0-47.47,21.25-47.47,47.46v.7c0,24.95,19.27,45.4,43.75,47.31h-83.35c-2.83-.17-5.69-.25-8.55-.25s-5.74.08-8.56.25c-76.66,4.42-137.45,67.99-137.45,145.73s65.37,145.99,146.02,145.99,141.14-60.6,145.74-137.08c.18-2.94.27-5.92.27-8.91s-.09-5.96-.27-8.9v-91.68c0,26.25,21.28,47.52,47.53,47.52h.7c24.52,0,44.69-18.54,47.26-42.37Z"/>
  <path class="cls-1" d="m387.24,87.82v95.45s95.48,0,95.48,0v-5.87c-3.64-50.12-44.1-89.6-93.49-89.6-.67,0-1.33,0-1.99.02Z"/>
  <rect class="cls-2" x="387.24" y="183.28" width="95.49" height=".15"/>
  <path class="cls-4" d="m317.13,328.79c0,41.5-33.65,75.14-75.15,75.14s-75.16-33.64-75.16-75.14c0-9.91,1.93-19.36,5.41-28.02,6.44,6.62,15.46,10.73,25.44,10.73,19.63,0,35.54-15.92,35.54-35.55,0-7.72-2.47-14.88-6.66-20.7,4.97-1.04,10.13-1.6,15.42-1.6,41.49,0,75.15,33.64,75.15,75.13Z"/>
  <path class="cls-6" d="m482.73,183.42v50.16c-2.57,23.83-22.74,42.37-47.26,42.37h-.7c-26.25,0-47.53-21.28-47.53-47.52v-45.01h95.49Z"/>
  <path class="cls-5" d="m387.24,47.53v40.28s95.76,0,95.76,0v-40.28C483.01,21.28,461.73,0,435.47,0h-.7c-26.25,0-47.53,21.28-47.53,47.53Z"/>
  <path class="cls-3" d="m387.24,320.11v-136.83h-137.18c-2.83-.17-5.69-.25-8.55-.25s-5.74.08-8.56.25c-76.66,4.42-137.45,67.99-137.45,145.73s65.37,145.99,146.02,145.99,141.14-60.6,145.74-137.08c.18-2.94.27-5.92.27-8.91s-.09-5.96-.27-8.9Zm-145.26,83.81c-41.51,0-75.16-33.64-75.16-75.14,0-9.91,1.93-19.36,5.41-28.02,6.44,6.62,15.46,10.73,25.44,10.73,19.63,0,35.54-15.92,35.54-35.55,0-7.72-2.47-14.88-6.66-20.7,4.97-1.04,10.13-1.6,15.42-1.6,41.49,0,75.15,33.64,75.15,75.13s-33.65,75.14-75.15,75.14Z"/>
  <path class="cls-6" d="m387.24,87.81v95.47h-53.83c-24.48-1.91-43.75-22.36-43.75-47.31v-.7c0-26.22,21.25-47.46,47.47-47.46h50.1Z"/>
  <path class="cls-5" d="m483.01,87.8v95.62s47.04,0,47.04,0c26.22,0,47.47-21.25,47.47-47.46v-.7c0-26.22-21.25-47.46-47.47-47.46h-47.04Z"/>
  <path class="cls-5" d="m389.24,87.8c49.39,0,89.85,39.48,93.49,89.6v.2c.14,1.87.22,3.77.25,5.67v.15h.03v-95.62s-93.77,0-93.77,0Z"/>
</svg>